<svg width="20" height="20" viewBox="0 0 20 20" fill="none" xmlns="http://www.w3.org/2000/svg">
<path d="M3.13846 13.0297C2.72889 12.1032 2.50142 11.0781 2.50142 10C2.50142 5.85786 5.85897 2.5 10.0007 2.5C14.1425 2.5 17.5 5.85786 17.5 10C17.5 14.1421 14.1425 17.5 10.0007 17.5C8.66724 17.5 7.41506 17.1519 6.33005 16.5417L2.5 17.4993L3.13846 13.0297Z" stroke="#0B3617" stroke-width="2" stroke-linecap="round" stroke-linejoin="round"/>
<path d="M14.0698 13.1454C14.0698 13.1454 13.5255 13.6741 13.3921 13.8291C13.1748 14.0584 12.9188 14.1667 12.5832 14.1667C12.5509 14.1667 12.5165 14.1667 12.4842 14.1645C11.8452 14.1242 11.2514 13.8779 10.8061 13.6677C9.58842 13.086 8.51917 12.2601 7.63064 11.2134C6.89701 10.3408 6.4065 9.53397 6.08163 8.66773C5.88155 8.13906 5.80841 7.72717 5.84068 7.33864C5.86219 7.09023 5.959 6.88429 6.13757 6.70807L6.8712 5.98408C6.97662 5.88641 7.08849 5.83333 7.19821 5.83333C7.33375 5.83333 7.44347 5.91401 7.51231 5.98195C7.51447 5.98408 7.51662 5.9862 7.51877 5.98832C7.65 6.10934 7.77479 6.23461 7.90602 6.36836C7.97271 6.4363 8.04156 6.50425 8.1104 6.57431L8.69774 7.15393C8.92578 7.37898 8.92578 7.58705 8.69774 7.8121C8.63535 7.87367 8.57511 7.93524 8.51272 7.99469C8.332 8.17728 8.47396 8.03718 8.28679 8.20279C8.28249 8.20703 8.27818 8.20916 8.27603 8.2134C8.09101 8.39599 8.12544 8.57434 8.16416 8.69535C8.16631 8.70172 8.16846 8.70809 8.17061 8.71446C8.32336 9.07964 8.5385 9.42359 8.86552 9.83336L8.86767 9.83548C9.46145 10.5574 10.0875 11.12 10.7781 11.551C10.8663 11.6062 10.9567 11.6508 11.0427 11.6932C11.1202 11.7314 11.1933 11.7675 11.2557 11.8058C11.2643 11.81 11.2729 11.8164 11.2815 11.8206C11.3547 11.8567 11.4235 11.8737 11.4945 11.8737C11.6731 11.8737 11.785 11.7633 11.8215 11.7272L12.2432 11.311C12.3164 11.2389 12.4326 11.1518 12.5681 11.1518C12.7015 11.1518 12.8112 11.2346 12.8779 11.3068C12.8801 11.3089 12.8801 11.3089 12.8822 11.311L14.0676 12.4809C14.2892 12.6975 14.0698 13.1454 14.0698 13.1454Z" fill="#0B3617"/>
</svg>
