<svg width="15" height="23" viewBox="0 0 15 23" fill="none" xmlns="http://www.w3.org/2000/svg">
<path d="M11.0714 9.53973C11.0714 12.1828 8.92881 14.3254 6.28574 14.3254C3.64266 14.3254 1.50003 12.1828 1.50003 9.53973C1.50003 6.89666 3.64266 4.75403 6.28574 4.75403C8.92881 4.75403 11.0714 6.89666 11.0714 9.53973Z" stroke="#0B3617" stroke-width="2"/>
<path d="M9.32547 6.5L14 1.82547" stroke="#0B3617" stroke-width="2"/>
<path d="M9.49997 1.82547H14V6.32546" stroke="#0B3617" stroke-width="2" stroke-linecap="round"/>
<path d="M5.10693 21.3964C5.10693 21.9487 5.55464 22.3964 6.10693 22.3964C6.65921 22.3964 7.10693 21.9487 7.10693 21.3964L5.10693 21.3964ZM5.10694 13.5L5.10693 21.3964L7.10693 21.3964L7.10694 13.5L5.10694 13.5Z" fill="#0B3617"/>
<path d="M9.40814 17.8606L2.69094 17.8606" stroke="#0B3617" stroke-width="2" stroke-linecap="round"/>
</svg>
